<svg width="15" height="15" viewBox="0 0 15 15" fill="none" xmlns="http://www.w3.org/2000/svg">
<path d="M0 7.5C0 3.35907 3.33683 0 7.45033 0C11.5638 0 14.9007 3.35907 14.9007 7.5C14.9007 11.6409 11.5638 15 7.45033 15C3.33683 15 0 11.6409 0 7.5Z" fill="#023F88"/>
<path d="M10.9308 3.50391L10.5569 4.95178H11.9664L12.3691 3.50391H10.9308Z" fill="#FFCB05"/>
<path d="M7.01883 4.92285H5.60931L5.23535 6.37073H6.64488L7.01883 4.92285Z" fill="#FFCB05"/>
<path d="M10.1832 6.37073L10.5572 4.92285H9.14764L8.77368 6.37073H10.1832Z" fill="#FFCB05"/>
<path d="M5.23534 6.37061H3.82582L3.4231 7.78952H4.86138L5.23534 6.37061Z" fill="#FFCB05"/>
<path d="M8.42828 6.37073L8.80223 4.92285H7.36395L6.98999 6.37073H8.42828Z" fill="#FFCB05"/>
<path d="M8.34207 6.68921H6.93255L6.55859 8.13709H7.96811L8.34207 6.68921Z" fill="#FFCB05"/>
<path d="M10.1832 6.37073L10.5572 4.92285H9.14764L8.77368 6.37073H10.1832Z" fill="#FFCB05"/>
<path d="M4.34375 9.90344H5.75327L6.12723 8.45557H4.7177L4.34375 9.90344Z" fill="#FFCB05"/>
<path d="M9.66532 8.45557H8.25579L7.88184 9.90344H9.29136L9.66532 8.45557Z" fill="#FFCB05"/>
<path d="M2.53149 11.3222H3.96978L4.34374 9.90332H2.93421L2.53149 11.3222Z" fill="#FFCB05"/>
<path d="M9 11.4189H10.4383L10.8122 10H9.40272L9 11.4189Z" fill="#FFCB05"/>
<path d="M9.55044 3.41699C9.55044 4.08301 9.03266 4.60425 8.37105 4.60425C7.70944 4.60425 7.19165 4.08301 7.19165 3.41699C7.19165 2.75096 7.70944 2.22974 8.37105 2.22974C9.0039 2.22974 9.55044 2.77992 9.55044 3.41699Z" fill="#FFCB05"/>
<path d="M0 7.5C0 3.35907 3.33683 0 7.45033 0C11.5638 0 14.9007 3.35907 14.9007 7.5C14.9007 11.6409 11.5638 15 7.45033 15C3.33683 15 0 11.6409 0 7.5Z" fill="#4D9EFF"/>
<path d="M10.9308 3.50391L10.5569 4.95178H11.9664L12.3691 3.50391H10.9308Z" fill="white"/>
<path d="M7.01883 4.92285H5.60931L5.23535 6.37073H6.64488L7.01883 4.92285Z" fill="white"/>
<path d="M10.1832 6.37073L10.5572 4.92285H9.14764L8.77368 6.37073H10.1832Z" fill="white"/>
<path d="M5.23534 6.37061H3.82582L3.4231 7.78952H4.86138L5.23534 6.37061Z" fill="white"/>
<path d="M8.42828 6.37073L8.80223 4.92285H7.36395L6.98999 6.37073H8.42828Z" fill="white"/>
<path d="M8.34207 6.68921H6.93255L6.55859 8.13709H7.96811L8.34207 6.68921Z" fill="white"/>
<path d="M10.1832 6.37073L10.5572 4.92285H9.14764L8.77368 6.37073H10.1832Z" fill="white"/>
<path d="M4.34375 9.90344H5.75327L6.12723 8.45557H4.7177L4.34375 9.90344Z" fill="white"/>
<path d="M9.66532 8.45557H8.25579L7.88184 9.90344H9.29136L9.66532 8.45557Z" fill="white"/>
<path d="M2.53149 11.3222H3.96978L4.34374 9.90332H2.93421L2.53149 11.3222Z" fill="white"/>
<path d="M8.88867 11.3222H10.327L10.7009 9.90332H9.2914L8.88867 11.3222Z" fill="white"/>
<path d="M9.55044 3.41699C9.55044 4.08301 9.03266 4.60425 8.37105 4.60425C7.70944 4.60425 7.19165 4.08301 7.19165 3.41699C7.19165 2.75096 7.70944 2.22974 8.37105 2.22974C9.0039 2.22974 9.55044 2.77992 9.55044 3.41699Z" fill="white"/>
</svg>
